G04*
G04 #@! TF.GenerationSoftware,Altium Limited,Altium Designer,22.4.2 (48)*
G04*
G04 Layer_Color=65535*
%FSLAX45Y45*%
%MOMM*%
G71*
G04*
G04 #@! TF.SameCoordinates,A1ACB9CE-F43E-4389-816B-9D06E944576F*
G04*
G04*
G04 #@! TF.FilePolarity,Positive*
G04*
G01*
G75*
%ADD10C,0.19000*%
%ADD11C,0.25400*%
%ADD12C,0.20000*%
%ADD13C,0.15240*%
%ADD14C,0.12700*%
D10*
X4082700Y2202700D02*
G03*
X4082700Y2202700I-1880000J0D01*
G01*
D11*
X2479498Y2946400D02*
G03*
X2479498Y2946400I-28398J0D01*
G01*
X3385440Y1884945D02*
G03*
X1008760Y1884945I-1188340J-297445D01*
G01*
Y1290055D02*
G03*
X3385440Y1290055I1188340J297445D01*
G01*
X2988984Y3207955D02*
X3638984Y2082122D01*
X3396016Y3442955D02*
X4046016Y2317122D01*
X2988984Y3207955D02*
X3396016Y3442955D01*
X3638984Y2082122D02*
X4046016Y2317122D01*
X1828800Y2870200D02*
X2565400D01*
X1828800Y3911600D02*
X2565400D01*
X3098817Y2273275D02*
Y2146317D01*
X3124208Y2120925D01*
X3174992D01*
X3200384Y2146317D01*
Y2273275D01*
X1130341Y2184425D02*
Y2336775D01*
X1206517D01*
X1231908Y2311383D01*
Y2260600D01*
X1206517Y2235208D01*
X1130341D01*
X1181125D02*
X1231908Y2184425D01*
X1282692Y2311383D02*
X1308084Y2336775D01*
X1358867D01*
X1384259Y2311383D01*
Y2285992D01*
X1358867Y2260600D01*
X1333475D01*
X1358867D01*
X1384259Y2235208D01*
Y2209817D01*
X1358867Y2184425D01*
X1308084D01*
X1282692Y2209817D01*
X2616241Y2628925D02*
Y2781275D01*
X2692417D01*
X2717808Y2755883D01*
Y2705100D01*
X2692417Y2679708D01*
X2616241D01*
X2667025D02*
X2717808Y2628925D01*
X2870159D02*
X2768592D01*
X2870159Y2730492D01*
Y2755883D01*
X2844767Y2781275D01*
X2793984D01*
X2768592Y2755883D01*
X2832133Y2336825D02*
Y2489175D01*
X2908308D01*
X2933700Y2463783D01*
Y2413000D01*
X2908308Y2387608D01*
X2832133D01*
X2882917D02*
X2933700Y2336825D01*
X2984484D02*
X3035267D01*
X3009876D01*
Y2489175D01*
X2984484Y2463783D01*
X42258Y2321175D02*
Y2168825D01*
X118433D01*
X143825Y2194217D01*
Y2295784D01*
X118433Y2321175D01*
X42258D01*
X194608D02*
Y2168825D01*
X270784D01*
X296176Y2194217D01*
Y2295784D01*
X270784Y2321175D01*
X194608D01*
X346959Y2168825D02*
X397743D01*
X372351D01*
Y2321175D01*
X346959Y2295784D01*
X1498641Y2755875D02*
Y2603525D01*
X1574817D01*
X1600208Y2628917D01*
Y2730483D01*
X1574817Y2755875D01*
X1498641D01*
X1752559Y2603525D02*
X1650992D01*
X1752559Y2705092D01*
Y2730483D01*
X1727167Y2755875D01*
X1676384D01*
X1650992Y2730483D01*
X152433Y2666975D02*
Y2514625D01*
X228608D01*
X254000Y2540017D01*
Y2641583D01*
X228608Y2666975D01*
X152433D01*
X304784Y2514625D02*
X355567D01*
X330176D01*
Y2666975D01*
X304784Y2641583D01*
X259608Y1738284D02*
X234216Y1763675D01*
X183433D01*
X158041Y1738284D01*
Y1636717D01*
X183433Y1611325D01*
X234216D01*
X259608Y1636717D01*
X310392Y1738284D02*
X335784Y1763675D01*
X386567D01*
X411959Y1738284D01*
Y1712892D01*
X386567Y1687500D01*
X361175D01*
X386567D01*
X411959Y1662108D01*
Y1636717D01*
X386567Y1611325D01*
X335784D01*
X310392Y1636717D01*
X381008Y2959083D02*
X355617Y2984475D01*
X304833D01*
X279441Y2959083D01*
Y2857517D01*
X304833Y2832125D01*
X355617D01*
X381008Y2857517D01*
X533359Y2832125D02*
X431792D01*
X533359Y2933692D01*
Y2959083D01*
X507967Y2984475D01*
X457184D01*
X431792Y2959083D01*
X1244567Y3975059D02*
X1219175Y4000451D01*
X1168392D01*
X1143000Y3975059D01*
Y3873492D01*
X1168392Y3848100D01*
X1219175D01*
X1244567Y3873492D01*
X1295351Y3848100D02*
X1346134D01*
X1320743D01*
Y4000451D01*
X1295351Y3975059D01*
X3193377Y3077424D02*
Y3229775D01*
X3244160Y3178992D01*
X3294944Y3229775D01*
Y3077424D01*
X3345727D02*
X3396511D01*
X3371119D01*
Y3229775D01*
X3345727Y3204383D01*
X1054133Y3124175D02*
Y2997217D01*
X1079525Y2971825D01*
X1130308D01*
X1155700Y2997217D01*
Y3124175D01*
X1206484Y2971825D02*
X1257267D01*
X1231876D01*
Y3124175D01*
X1206484Y3098783D01*
X1968566Y3695725D02*
Y3848075D01*
X2044741D01*
X2070133Y3822683D01*
Y3771900D01*
X2044741Y3746508D01*
X1968566D01*
X2019349D02*
X2070133Y3695725D01*
X2120917Y3848075D02*
X2222484D01*
X2171700D01*
Y3695725D01*
X2374834Y3822683D02*
X2349443Y3848075D01*
X2298659D01*
X2273267Y3822683D01*
Y3721117D01*
X2298659Y3695725D01*
X2349443D01*
X2374834Y3721117D01*
X2075741Y2304275D02*
Y2151925D01*
X2151916D01*
X2177308Y2177316D01*
Y2202708D01*
X2151916Y2228100D01*
X2075741D01*
X2151916D01*
X2177308Y2253492D01*
Y2278883D01*
X2151916Y2304275D01*
X2075741D01*
X2228092D02*
X2329659D01*
X2278875D01*
Y2151925D01*
D12*
X407700Y2393700D02*
G03*
X407700Y2393700I-10000J0D01*
G01*
X929900Y2463200D02*
G03*
X929900Y2463200I-10000J0D01*
G01*
X1534000Y3234400D02*
G03*
X1534000Y3234400I-10000J0D01*
G01*
X445900Y2590800D02*
G03*
X445900Y2590800I-10000J0D01*
G01*
X606290Y2728390D02*
Y3139010D01*
X866910Y2728390D02*
Y3139010D01*
X3005582Y2654944D02*
X3128493Y2442056D01*
X3196107Y2764944D02*
X3319018Y2552056D01*
X3031007Y3044344D02*
X3153918Y2831456D01*
X2840482Y2934344D02*
X2963393Y2721456D01*
X1153590Y3762510D02*
X1564210D01*
X1153590Y3501890D02*
X1564210D01*
D13*
X3402321Y2324658D02*
G03*
X3440397Y2314098I25006J16239D01*
G01*
X3425390Y2340610D02*
X3440630Y2314214D01*
X3446980Y2303215D01*
X3301800Y2219395D02*
X3332596Y2237175D01*
X3280210Y2256790D02*
X3301800Y2219395D01*
X3416184Y2285435D02*
X3446980Y2303215D01*
D14*
X592100Y1512500D02*
Y1662500D01*
X517100Y1587500D02*
X667100D01*
X2117100Y1057500D02*
X2267100D01*
X3822100Y1512500D02*
Y1662500D01*
X3435600Y1897500D02*
Y2065500D01*
X958600D02*
X3435600D01*
X958600Y1897500D02*
Y2065500D01*
Y1109500D02*
Y1277500D01*
Y1109500D02*
X3435600D01*
Y1277500D01*
X3747100Y1587500D02*
X3897100D01*
X567700Y2142700D02*
X727700D01*
X567700Y2454700D02*
X727700D01*
X906400Y2732700D02*
Y3261700D01*
X1430400Y2732700D02*
Y3261700D01*
X1594000Y2925900D02*
Y3093900D01*
X1454000Y2925900D02*
Y3093900D01*
X576400Y2660800D02*
X744400D01*
X576400Y2520800D02*
X744400D01*
M02*
