G04*
G04 #@! TF.GenerationSoftware,Altium Limited,Altium Designer,22.4.2 (48)*
G04*
G04 Layer_Color=32896*
%FSLAX45Y45*%
%MOMM*%
G71*
G04*
G04 #@! TF.SameCoordinates,A1ACB9CE-F43E-4389-816B-9D06E944576F*
G04*
G04*
G04 #@! TF.FilePolarity,Positive*
G04*
G01*
G75*
G36*
X3455308Y2165895D02*
X3466789D01*
Y2160154D01*
X3478270D01*
Y2154414D01*
X3484011D01*
Y2148673D01*
X3489752D01*
Y2142932D01*
X3495492D01*
Y2131451D01*
X3501233D01*
Y2119970D01*
X3506973D01*
Y2102748D01*
X3512714D01*
Y2039602D01*
X3506973D01*
Y2016640D01*
X3501233D01*
Y2005159D01*
X3495492D01*
Y1999418D01*
X3489752D01*
Y1993678D01*
X3484011D01*
Y1987937D01*
X3478270D01*
Y1982197D01*
X3466789D01*
Y1976456D01*
X3426606D01*
Y1982197D01*
X3409384D01*
Y1987937D01*
X3403643D01*
Y1993678D01*
X3397903D01*
Y1999418D01*
X3392162D01*
Y2005159D01*
X3386421D01*
Y2022381D01*
X3380681D01*
Y2062565D01*
X3386421D01*
Y2079786D01*
X3392162D01*
Y2085527D01*
X3397903D01*
Y2091267D01*
X3403643D01*
Y2097008D01*
X3409384D01*
Y2102748D01*
X3426606D01*
Y2108489D01*
X3461049D01*
Y2102748D01*
X3478270D01*
Y2097008D01*
X3484011D01*
Y2091267D01*
X3489752D01*
Y2097008D01*
Y2108489D01*
X3484011D01*
Y2125711D01*
X3478270D01*
Y2137192D01*
X3472530D01*
Y2142932D01*
X3466789D01*
Y2148673D01*
X3449568D01*
Y2154414D01*
X3415124D01*
Y2148673D01*
X3397903D01*
Y2142932D01*
X3392162D01*
Y2165895D01*
X3403643D01*
Y2171635D01*
X3455308D01*
Y2165895D01*
D02*
G37*
G36*
X3277351Y2102748D02*
X3283091D01*
Y1976456D01*
X2886993D01*
Y2108489D01*
X3277351D01*
Y2102748D01*
D02*
G37*
G36*
X2714776Y2097008D02*
X2726257D01*
Y2091267D01*
X2731998D01*
Y2085527D01*
X2737739D01*
Y2079786D01*
X2743479D01*
Y2074046D01*
X2749220D01*
Y2062565D01*
X2754960D01*
Y2016640D01*
X2749220D01*
Y2005159D01*
X2743479D01*
Y1999418D01*
X2737739D01*
Y1993678D01*
X2731998D01*
Y1987937D01*
X2726257D01*
Y1982197D01*
X2714776D01*
Y1976456D01*
X2668852D01*
Y1982197D01*
X2657371D01*
Y1987937D01*
X2645890D01*
Y1993678D01*
X2640149D01*
Y2005159D01*
X2634408D01*
Y2010899D01*
X2628668D01*
Y2068305D01*
X2634408D01*
Y2074046D01*
X2640149D01*
Y2085527D01*
X2645890D01*
Y2091267D01*
X2657371D01*
Y2097008D01*
X2663112D01*
Y2102748D01*
X2714776D01*
Y2097008D01*
D02*
G37*
G36*
X2456451D02*
X2467933D01*
Y2091267D01*
X2473673D01*
Y2085527D01*
X2479414D01*
Y2079786D01*
X2485154D01*
Y2068305D01*
X2490895D01*
Y2051083D01*
X2496635D01*
Y2028121D01*
X2490895D01*
Y2010899D01*
X2485154D01*
Y1999418D01*
X2479414D01*
Y1993678D01*
X2473673D01*
Y1987937D01*
X2467933D01*
Y1982197D01*
X2456451D01*
Y1976456D01*
X2404786D01*
Y1982197D01*
X2393305D01*
Y1987937D01*
X2387565D01*
Y1993678D01*
X2381824D01*
Y1999418D01*
X2376084D01*
Y2005159D01*
X2370343D01*
Y2022381D01*
X2364602D01*
Y2051083D01*
Y2056824D01*
X2370343D01*
Y2074046D01*
X2376084D01*
Y2079786D01*
X2381824D01*
Y2085527D01*
X2387565D01*
Y2091267D01*
X2393305D01*
Y2097008D01*
X2404786D01*
Y2102748D01*
X2456451D01*
Y2097008D01*
D02*
G37*
G36*
X2192386D02*
X2203867D01*
Y2091267D01*
X2209607D01*
Y2085527D01*
X2215348D01*
Y2079786D01*
X2221089D01*
Y2074046D01*
X2226829D01*
Y2062565D01*
X2232570D01*
Y2039602D01*
Y2033862D01*
Y2016640D01*
X2226829D01*
Y2005159D01*
X2221089D01*
Y1999418D01*
X2215348D01*
Y1993678D01*
X2209607D01*
Y1987937D01*
X2203867D01*
Y1982197D01*
X2192386D01*
Y1976456D01*
X2140721D01*
Y1982197D01*
X2134980D01*
Y1987937D01*
X2123499D01*
Y1993678D01*
X2117759D01*
Y2005159D01*
X2112018D01*
Y2010899D01*
X2106277D01*
Y2039602D01*
X2100537D01*
Y2045343D01*
X2106277D01*
Y2068305D01*
X2112018D01*
Y2074046D01*
X2117759D01*
Y2085527D01*
X2123499D01*
Y2091267D01*
X2134980D01*
Y2097008D01*
X2140721D01*
Y2102748D01*
X2192386D01*
Y2097008D01*
D02*
G37*
G36*
X1928320D02*
X1939801D01*
Y2091267D01*
X1951282D01*
Y2085527D01*
X1957023D01*
Y2074046D01*
X1962763D01*
Y2068305D01*
X1968504D01*
Y2010899D01*
X1962763D01*
Y2005159D01*
X1957023D01*
Y1993678D01*
X1951282D01*
Y1987937D01*
X1939801D01*
Y1982197D01*
X1928320D01*
Y1976456D01*
X1882396D01*
Y1982197D01*
X1870914D01*
Y1987937D01*
X1865174D01*
Y1993678D01*
X1859433D01*
Y1999418D01*
X1853693D01*
Y2005159D01*
X1847952D01*
Y2016640D01*
X1842212D01*
Y2062565D01*
X1847952D01*
Y2074046D01*
X1853693D01*
Y2079786D01*
X1859433D01*
Y2085527D01*
X1865174D01*
Y2091267D01*
X1870914D01*
Y2097008D01*
X1882396D01*
Y2102748D01*
X1928320D01*
Y2097008D01*
D02*
G37*
G36*
X3518454Y1890348D02*
X3426606D01*
Y1878867D01*
X3432346D01*
Y1861645D01*
X3438087D01*
Y1850164D01*
X3443827D01*
Y1832942D01*
X3449568D01*
Y1815721D01*
X3455308D01*
Y1804239D01*
X3461049D01*
Y1787018D01*
X3466789D01*
Y1769796D01*
X3472530D01*
Y1758315D01*
X3478270D01*
Y1741093D01*
X3484011D01*
Y1723872D01*
X3489752D01*
Y1718131D01*
X3466789D01*
Y1723872D01*
X3461049D01*
Y1735353D01*
X3455308D01*
Y1752574D01*
X3449568D01*
Y1769796D01*
X3443827D01*
Y1781277D01*
X3438087D01*
Y1798499D01*
X3432346D01*
Y1815721D01*
X3426606D01*
Y1827202D01*
X3420865D01*
Y1844423D01*
X3415124D01*
Y1855904D01*
X3409384D01*
Y1873126D01*
X3403643D01*
Y1890348D01*
X3397903D01*
Y1907569D01*
X3518454D01*
Y1890348D01*
D02*
G37*
G36*
X3277351Y1838683D02*
X3283091D01*
Y1718131D01*
X3277351D01*
Y1712391D01*
X2886993D01*
Y1838683D01*
Y1844423D01*
X3277351D01*
Y1838683D01*
D02*
G37*
G36*
X2754960Y1832942D02*
Y1827202D01*
Y1712391D01*
X2364602D01*
Y1844423D01*
X2754960D01*
Y1832942D01*
D02*
G37*
G36*
X2186645Y1838683D02*
X2198126D01*
Y1832942D01*
X2209607D01*
Y1827202D01*
X2215348D01*
Y1821461D01*
X2221089D01*
Y1815721D01*
X2226829D01*
Y1798499D01*
X2232570D01*
Y1758315D01*
X2226829D01*
Y1741093D01*
X2221089D01*
Y1735353D01*
X2215348D01*
Y1729612D01*
X2209607D01*
Y1723872D01*
X2198126D01*
Y1718131D01*
X2186645D01*
Y1712391D01*
X2152202D01*
Y1718131D01*
X2134980D01*
Y1723872D01*
X2129240D01*
Y1729612D01*
X2123499D01*
Y1735353D01*
X2117759D01*
Y1741093D01*
X2112018D01*
Y1752574D01*
X2106277D01*
Y1775537D01*
X2100537D01*
Y1781277D01*
X2106277D01*
Y1804239D01*
X2112018D01*
Y1809980D01*
Y1815721D01*
X2117759D01*
Y1821461D01*
X2123499D01*
Y1827202D01*
X2129240D01*
Y1832942D01*
X2134980D01*
Y1838683D01*
X2152202D01*
Y1844423D01*
X2186645D01*
Y1838683D01*
D02*
G37*
G36*
X1922580D02*
X1934061D01*
Y1832942D01*
X1945542D01*
Y1827202D01*
X1951282D01*
Y1821461D01*
X1957023D01*
Y1815721D01*
X1962763D01*
Y1804239D01*
X1968504D01*
Y1752574D01*
X1962763D01*
Y1741093D01*
X1957023D01*
Y1735353D01*
X1951282D01*
Y1729612D01*
X1945542D01*
Y1723872D01*
X1934061D01*
Y1718131D01*
X1922580D01*
Y1712391D01*
X1888136D01*
Y1718131D01*
X1876655D01*
Y1723872D01*
X1865174D01*
Y1729612D01*
X1859433D01*
Y1735353D01*
X1853693D01*
Y1741093D01*
X1847952D01*
Y1752574D01*
X1842212D01*
Y1804239D01*
X1847952D01*
Y1815721D01*
X1853693D01*
Y1821461D01*
X1859433D01*
Y1827202D01*
X1865174D01*
Y1832942D01*
X1876655D01*
Y1838683D01*
X1888136D01*
Y1844423D01*
X1922580D01*
Y1838683D01*
D02*
G37*
G36*
X1658514D02*
X1675736D01*
Y1832942D01*
X1681476D01*
Y1827202D01*
X1692957D01*
Y1821461D01*
X1698698D01*
Y1809980D01*
X1704438D01*
Y1798499D01*
X1710179D01*
Y1758315D01*
X1704438D01*
Y1746834D01*
X1698698D01*
Y1735353D01*
X1692957D01*
Y1729612D01*
X1687217D01*
Y1723872D01*
X1675736D01*
Y1718131D01*
X1658514D01*
Y1712391D01*
X1629811D01*
Y1718131D01*
X1612589D01*
Y1723872D01*
X1606849D01*
Y1729612D01*
X1595368D01*
Y1741093D01*
X1589627D01*
Y1746834D01*
X1583887D01*
Y1752574D01*
Y1764056D01*
X1578146D01*
Y1792758D01*
X1583887D01*
Y1809980D01*
X1589627D01*
Y1815721D01*
X1595368D01*
Y1821461D01*
X1601108D01*
Y1827202D01*
X1606849D01*
Y1832942D01*
X1612589D01*
Y1838683D01*
X1629811D01*
Y1844423D01*
X1658514D01*
Y1838683D01*
D02*
G37*
G36*
X3466789Y1643504D02*
X3484011D01*
Y1637763D01*
X3489752D01*
Y1632023D01*
X3495492D01*
Y1626282D01*
X3501233D01*
Y1614801D01*
X3506973D01*
Y1580358D01*
X3501233D01*
Y1568877D01*
X3495492D01*
Y1563136D01*
X3484011D01*
Y1557395D01*
X3478270D01*
Y1551655D01*
X3489752D01*
Y1545914D01*
X3495492D01*
Y1540174D01*
X3501233D01*
Y1534433D01*
X3506973D01*
Y1528693D01*
X3512714D01*
Y1488509D01*
X3506973D01*
Y1477028D01*
X3501233D01*
Y1471287D01*
X3495492D01*
Y1465546D01*
X3489752D01*
Y1459806D01*
X3472530D01*
Y1454065D01*
X3420865D01*
Y1459806D01*
X3403643D01*
Y1465546D01*
X3397903D01*
Y1471287D01*
X3392162D01*
Y1477028D01*
X3386421D01*
Y1488509D01*
X3380681D01*
Y1522952D01*
X3386421D01*
Y1534433D01*
X3392162D01*
Y1540174D01*
X3397903D01*
Y1545914D01*
X3403643D01*
Y1551655D01*
X3415124D01*
Y1557395D01*
X3409384D01*
Y1563136D01*
X3397903D01*
Y1568877D01*
X3392162D01*
Y1580358D01*
X3386421D01*
Y1614801D01*
X3392162D01*
Y1626282D01*
X3397903D01*
Y1632023D01*
X3403643D01*
Y1637763D01*
X3409384D01*
Y1643504D01*
X3426606D01*
Y1649244D01*
X3466789D01*
Y1643504D01*
D02*
G37*
G36*
X3283091Y1454065D02*
X2886993D01*
Y1580358D01*
X3283091D01*
Y1454065D01*
D02*
G37*
G36*
X2754960D02*
X2364602D01*
Y1580358D01*
X2754960D01*
Y1454065D01*
D02*
G37*
G36*
X2232570D02*
X1842212D01*
Y1528693D01*
Y1534433D01*
Y1580358D01*
X2232570D01*
Y1454065D01*
D02*
G37*
G36*
X1669995Y1574617D02*
X1681476D01*
Y1568877D01*
X1687217D01*
Y1563136D01*
X1692957D01*
Y1557395D01*
X1698698D01*
Y1551655D01*
X1704438D01*
Y1534433D01*
X1710179D01*
Y1499990D01*
X1704438D01*
Y1482768D01*
X1698698D01*
Y1477028D01*
X1692957D01*
Y1471287D01*
X1687217D01*
Y1465546D01*
X1681476D01*
Y1459806D01*
X1669995D01*
Y1454065D01*
X1618330D01*
Y1459806D01*
X1606849D01*
Y1465546D01*
X1601108D01*
Y1471287D01*
X1595368D01*
Y1477028D01*
X1589627D01*
Y1488509D01*
X1583887D01*
Y1499990D01*
X1578146D01*
Y1534433D01*
X1583887D01*
Y1545914D01*
X1589627D01*
Y1557395D01*
X1595368D01*
Y1563136D01*
X1601108D01*
Y1568877D01*
X1606849D01*
Y1574617D01*
X1618330D01*
Y1580358D01*
X1669995D01*
Y1574617D01*
D02*
G37*
G36*
X1405929D02*
X1417410D01*
Y1568877D01*
X1423151D01*
Y1563136D01*
X1428892D01*
Y1557395D01*
X1434632D01*
Y1551655D01*
X1440373D01*
Y1540174D01*
X1446113D01*
Y1494249D01*
X1440373D01*
Y1482768D01*
X1434632D01*
Y1477028D01*
X1428892D01*
Y1471287D01*
X1423151D01*
Y1465546D01*
X1417410D01*
Y1459806D01*
X1405929D01*
Y1454065D01*
X1354264D01*
Y1459806D01*
X1348524D01*
Y1465546D01*
X1337043D01*
Y1471287D01*
X1331302D01*
Y1477028D01*
X1325562D01*
Y1488509D01*
X1319821D01*
Y1511471D01*
X1314080D01*
Y1522952D01*
X1319821D01*
Y1545914D01*
X1325562D01*
Y1551655D01*
X1331302D01*
Y1563136D01*
X1337043D01*
Y1568877D01*
X1348524D01*
Y1574617D01*
X1360005D01*
Y1580358D01*
X1405929D01*
Y1574617D01*
D02*
G37*
G36*
X3466789Y1379438D02*
X3484011D01*
Y1373698D01*
X3489752D01*
Y1367957D01*
X3495492D01*
Y1362216D01*
X3501233D01*
Y1356476D01*
X3506973D01*
Y1339254D01*
X3512714D01*
Y1299070D01*
X3506973D01*
Y1281849D01*
X3501233D01*
Y1276108D01*
X3495492D01*
Y1270368D01*
X3489752D01*
Y1264627D01*
X3484011D01*
Y1258886D01*
X3466789D01*
Y1253146D01*
X3432346D01*
Y1258886D01*
X3415124D01*
Y1264627D01*
X3409384D01*
Y1270368D01*
X3403643D01*
Y1253146D01*
X3409384D01*
Y1235924D01*
X3415124D01*
Y1224443D01*
X3420865D01*
Y1218703D01*
X3426606D01*
Y1212962D01*
X3443827D01*
Y1207222D01*
X3478270D01*
Y1212962D01*
X3495492D01*
Y1218703D01*
X3501233D01*
Y1195740D01*
X3489752D01*
Y1190000D01*
X3438087D01*
Y1195740D01*
X3426606D01*
Y1201481D01*
X3415124D01*
Y1207222D01*
X3409384D01*
Y1212962D01*
X3403643D01*
Y1218703D01*
X3397903D01*
Y1230184D01*
X3392162D01*
Y1241665D01*
X3386421D01*
Y1258886D01*
X3380681D01*
Y1322033D01*
X3386421D01*
Y1344995D01*
X3392162D01*
Y1356476D01*
X3397903D01*
Y1362216D01*
X3403643D01*
Y1367957D01*
X3409384D01*
Y1373698D01*
X3415124D01*
Y1379438D01*
X3426606D01*
Y1385179D01*
X3466789D01*
Y1379438D01*
D02*
G37*
G36*
X3277351Y1316292D02*
X3283091D01*
Y1190000D01*
X2886993D01*
Y1322033D01*
X3277351D01*
Y1316292D01*
D02*
G37*
G36*
X2754960Y1190000D02*
X2364602D01*
Y1322033D01*
X2754960D01*
Y1190000D01*
D02*
G37*
G36*
X2232570D02*
X1842212D01*
Y1322033D01*
X2232570D01*
Y1190000D01*
D02*
G37*
G36*
X1710179D02*
X1319821D01*
Y1270368D01*
Y1276108D01*
Y1322033D01*
X1710179D01*
Y1190000D01*
D02*
G37*
G36*
X1124642Y1316292D02*
X1147604D01*
Y1310552D01*
X1159086D01*
Y1304811D01*
X1164826D01*
Y1299070D01*
X1170567D01*
Y1293330D01*
X1176307D01*
Y1281849D01*
X1182048D01*
Y1264627D01*
X1187788D01*
Y1241665D01*
X1182048D01*
Y1224443D01*
X1176307D01*
Y1218703D01*
X1170567D01*
Y1207222D01*
X1164826D01*
Y1201481D01*
X1153345D01*
Y1195740D01*
X1141864D01*
Y1190000D01*
X1101680D01*
Y1195740D01*
X1084458D01*
Y1201481D01*
X1078718D01*
Y1207222D01*
X1072977D01*
Y1212962D01*
X1067237D01*
Y1224443D01*
X1061496D01*
Y1235924D01*
X1055755D01*
Y1276108D01*
X1061496D01*
Y1287589D01*
X1067237D01*
Y1293330D01*
X1072977D01*
Y1299070D01*
X1078718D01*
Y1304811D01*
X1084458D01*
Y1310552D01*
X1090199D01*
Y1316292D01*
X1113161D01*
Y1322033D01*
X1124642D01*
Y1316292D01*
D02*
G37*
G36*
X3466789Y1115373D02*
X3478270D01*
Y1109632D01*
X3484011D01*
Y1103891D01*
X3489752D01*
Y1098151D01*
X3495492D01*
Y1092410D01*
X3501233D01*
Y1080929D01*
X3506973D01*
Y1057967D01*
X3512714D01*
Y989080D01*
X3506973D01*
Y966118D01*
X3501233D01*
Y954637D01*
X3495492D01*
Y948897D01*
X3489752D01*
Y943156D01*
X3484011D01*
Y937415D01*
X3478270D01*
Y931675D01*
X3466789D01*
Y925934D01*
X3426606D01*
Y931675D01*
X3415124D01*
Y937415D01*
X3409384D01*
Y943156D01*
X3403643D01*
Y948897D01*
X3397903D01*
Y954637D01*
X3392162D01*
Y966118D01*
X3386421D01*
Y989080D01*
X3380681D01*
Y1057967D01*
X3386421D01*
Y1080929D01*
X3392162D01*
Y1092410D01*
X3397903D01*
Y1098151D01*
X3403643D01*
Y1103891D01*
X3409384D01*
Y1109632D01*
X3415124D01*
Y1115373D01*
X3426606D01*
Y1121113D01*
X3466789D01*
Y1115373D01*
D02*
G37*
G36*
X3283091Y931675D02*
X3277351D01*
Y925934D01*
X2886993D01*
Y1046486D01*
Y1052226D01*
Y1057967D01*
X3283091D01*
Y931675D01*
D02*
G37*
G36*
X2754960Y925934D02*
X2364602D01*
Y1057967D01*
X2754960D01*
Y925934D01*
D02*
G37*
G36*
X2232570D02*
X1842212D01*
Y1057967D01*
X2232570D01*
Y925934D01*
D02*
G37*
G36*
X1710179D02*
X1319821D01*
Y1057967D01*
X1710179D01*
Y925934D01*
D02*
G37*
G36*
X1187788Y931675D02*
X1182048D01*
Y925934D01*
X791690D01*
Y1057967D01*
X1187788D01*
Y931675D01*
D02*
G37*
G36*
X3461049Y3469001D02*
X3484011D01*
Y3463261D01*
X3495492D01*
Y3446039D01*
X3484011D01*
Y3451779D01*
X3461049D01*
Y3457520D01*
X3449568D01*
Y3423076D01*
Y3417336D01*
Y3302525D01*
X3489752D01*
Y3285303D01*
X3386421D01*
Y3302525D01*
X3426606D01*
Y3474742D01*
X3461049D01*
Y3469001D01*
D02*
G37*
G36*
X3242908Y3405855D02*
X3254389D01*
Y3400114D01*
X3260129D01*
Y3394374D01*
X3265870D01*
Y3388633D01*
X3271610D01*
Y3377152D01*
X3277351D01*
Y3319746D01*
X3271610D01*
Y3314006D01*
X3265870D01*
Y3302525D01*
X3260129D01*
Y3296784D01*
X3248648D01*
Y3291044D01*
X3237167D01*
Y3285303D01*
X3191243D01*
Y3291044D01*
X3179761D01*
Y3296784D01*
X3174021D01*
Y3302525D01*
X3168280D01*
Y3308265D01*
X3162540D01*
Y3314006D01*
X3156799D01*
Y3325487D01*
X3151059D01*
Y3371412D01*
X3156799D01*
Y3382893D01*
X3162540D01*
Y3388633D01*
X3168280D01*
Y3394374D01*
X3174021D01*
Y3400114D01*
X3179761D01*
Y3405855D01*
X3191243D01*
Y3411595D01*
X3242908D01*
Y3405855D01*
D02*
G37*
G36*
X3019026Y3285303D02*
X2628668D01*
Y3411595D01*
X3019026D01*
Y3285303D01*
D02*
G37*
G36*
X1968504D02*
X1578146D01*
Y3411595D01*
X1968504D01*
Y3285303D01*
D02*
G37*
G36*
X1446113D02*
X1055755D01*
Y3394374D01*
Y3400114D01*
Y3411595D01*
X1446113D01*
Y3285303D01*
D02*
G37*
G36*
X2496635D02*
X2490895D01*
Y3279563D01*
X2106277D01*
Y3285303D01*
X2100537D01*
Y3411595D01*
X2106277D01*
Y3417336D01*
X2496635D01*
Y3285303D01*
D02*
G37*
G36*
X3484011Y3210676D02*
X3501233D01*
Y3204935D01*
X3512714D01*
Y3176233D01*
X3506973D01*
Y3181973D01*
X3501233D01*
Y3187714D01*
X3489752D01*
Y3193454D01*
X3472530D01*
Y3199195D01*
X3438087D01*
Y3193454D01*
X3426606D01*
Y3187714D01*
X3420865D01*
Y3176233D01*
X3415124D01*
Y3147530D01*
X3420865D01*
Y3136049D01*
X3426606D01*
Y3130308D01*
X3432346D01*
Y3118827D01*
X3438087D01*
Y3113086D01*
X3443827D01*
Y3107346D01*
X3449568D01*
Y3101605D01*
X3455308D01*
Y3095865D01*
X3461049D01*
Y3090124D01*
X3466789D01*
Y3084384D01*
X3472530D01*
Y3078643D01*
X3478270D01*
Y3072902D01*
X3484011D01*
Y3067162D01*
X3489752D01*
Y3061421D01*
X3495492D01*
Y3055681D01*
X3501233D01*
Y3049940D01*
X3506973D01*
Y3044200D01*
X3512714D01*
Y3021238D01*
X3392162D01*
Y3038459D01*
X3478270D01*
Y3044200D01*
X3472530D01*
Y3049940D01*
X3466789D01*
Y3055681D01*
X3461049D01*
Y3061421D01*
X3455308D01*
Y3067162D01*
X3449568D01*
Y3072902D01*
X3443827D01*
Y3078643D01*
X3438087D01*
Y3090124D01*
X3432346D01*
Y3095865D01*
X3426606D01*
Y3101605D01*
X3420865D01*
Y3107346D01*
X3415124D01*
Y3113086D01*
X3409384D01*
Y3118827D01*
X3403643D01*
Y3130308D01*
X3397903D01*
Y3141789D01*
X3392162D01*
Y3176233D01*
X3397903D01*
Y3187714D01*
X3403643D01*
Y3199195D01*
X3409384D01*
Y3204935D01*
X3420865D01*
Y3210676D01*
X3438087D01*
Y3216416D01*
X3484011D01*
Y3210676D01*
D02*
G37*
G36*
X3231427Y3147530D02*
X3248648D01*
Y3141789D01*
X3254389D01*
Y3136049D01*
X3260129D01*
Y3130308D01*
X3265870D01*
Y3124568D01*
X3271610D01*
Y3113086D01*
X3277351D01*
Y3090124D01*
X3283091D01*
Y3084384D01*
X3277351D01*
Y3061421D01*
X3271610D01*
Y3049940D01*
X3265870D01*
Y3044200D01*
X3260129D01*
Y3038459D01*
X3254389D01*
Y3032719D01*
X3242908D01*
Y3026978D01*
X3231427D01*
Y3021238D01*
X3196983D01*
Y3026978D01*
X3185502D01*
Y3032719D01*
X3174021D01*
Y3038459D01*
X3168280D01*
Y3044200D01*
X3162540D01*
Y3055681D01*
X3156799D01*
Y3067162D01*
X3151059D01*
Y3113086D01*
X3156799D01*
Y3124568D01*
X3162540D01*
Y3130308D01*
X3168280D01*
Y3136049D01*
X3174021D01*
Y3141789D01*
X3185502D01*
Y3147530D01*
X3196983D01*
Y3153270D01*
X3231427D01*
Y3147530D01*
D02*
G37*
G36*
X2973101D02*
X2984583D01*
Y3141789D01*
X2996064D01*
Y3136049D01*
X3001804D01*
Y3130308D01*
X3007545D01*
Y3118827D01*
X3013285D01*
Y3107346D01*
X3019026D01*
Y3067162D01*
X3013285D01*
Y3055681D01*
X3007545D01*
Y3044200D01*
X3001804D01*
Y3038459D01*
X2990323D01*
Y3032719D01*
X2984583D01*
Y3026978D01*
X2967361D01*
Y3021238D01*
X2938658D01*
Y3026978D01*
X2921436D01*
Y3032719D01*
X2915696D01*
Y3038459D01*
X2909955D01*
Y3044200D01*
X2904215D01*
Y3049940D01*
X2898474D01*
Y3055681D01*
X2892734D01*
Y3072902D01*
X2886993D01*
Y3101605D01*
X2892734D01*
Y3118827D01*
X2898474D01*
Y3124568D01*
X2904215D01*
Y3130308D01*
X2909955D01*
Y3136049D01*
X2915696D01*
Y3141789D01*
X2921436D01*
Y3147530D01*
X2938658D01*
Y3153270D01*
X2973101D01*
Y3147530D01*
D02*
G37*
G36*
X2754960Y3021238D02*
X2364602D01*
Y3153270D01*
X2754960D01*
Y3021238D01*
D02*
G37*
G36*
X2232570D02*
X1842212D01*
Y3153270D01*
X2232570D01*
Y3021238D01*
D02*
G37*
G36*
X1710179Y3044200D02*
Y3038459D01*
Y3021238D01*
X1319821D01*
Y3153270D01*
X1710179D01*
Y3044200D01*
D02*
G37*
G36*
X3489752Y2952351D02*
X3506973D01*
Y2929389D01*
X3501233D01*
Y2935129D01*
X3478270D01*
Y2940870D01*
X3438087D01*
Y2935129D01*
X3426606D01*
Y2929389D01*
X3420865D01*
Y2923648D01*
X3415124D01*
Y2889205D01*
X3420865D01*
Y2883464D01*
X3426606D01*
Y2877723D01*
X3438087D01*
Y2871983D01*
X3478270D01*
Y2854761D01*
X3438087D01*
Y2849021D01*
X3420865D01*
Y2843280D01*
X3415124D01*
Y2831799D01*
X3409384D01*
Y2803096D01*
X3415124D01*
Y2791615D01*
X3426606D01*
Y2785875D01*
X3438087D01*
Y2780134D01*
X3484011D01*
Y2785875D01*
X3501233D01*
Y2791615D01*
X3506973D01*
Y2797356D01*
X3512714D01*
Y2774393D01*
X3506973D01*
Y2768653D01*
X3484011D01*
Y2762912D01*
X3432346D01*
Y2768653D01*
X3415124D01*
Y2774393D01*
X3409384D01*
Y2780134D01*
X3397903D01*
Y2791615D01*
X3392162D01*
Y2803096D01*
X3386421D01*
Y2837540D01*
X3392162D01*
Y2849021D01*
X3397903D01*
Y2854761D01*
X3409384D01*
Y2860502D01*
X3420865D01*
Y2866242D01*
X3415124D01*
Y2871983D01*
X3403643D01*
Y2877723D01*
X3397903D01*
Y2889205D01*
X3392162D01*
Y2923648D01*
X3397903D01*
Y2935129D01*
X3403643D01*
Y2940870D01*
X3409384D01*
Y2946610D01*
X3415124D01*
Y2952351D01*
X3432346D01*
Y2958091D01*
X3489752D01*
Y2952351D01*
D02*
G37*
G36*
X3242908Y2883464D02*
X3248648D01*
Y2877723D01*
X3260129D01*
Y2871983D01*
X3265870D01*
Y2866242D01*
X3271610D01*
Y2854761D01*
X3277351D01*
Y2837540D01*
X3283091D01*
Y2814578D01*
X3277351D01*
Y2797356D01*
X3271610D01*
Y2785875D01*
X3265870D01*
Y2780134D01*
X3260129D01*
Y2774393D01*
X3254389D01*
Y2768653D01*
X3242908D01*
Y2762912D01*
X3231427D01*
Y2757172D01*
X3202724D01*
Y2762912D01*
X3185502D01*
Y2768653D01*
X3174021D01*
Y2774393D01*
X3168280D01*
Y2780134D01*
X3162540D01*
Y2785875D01*
X3156799D01*
Y2797356D01*
X3151059D01*
Y2849021D01*
X3156799D01*
Y2860502D01*
X3162540D01*
Y2866242D01*
X3168280D01*
Y2871983D01*
X3174021D01*
Y2877723D01*
X3179761D01*
Y2883464D01*
X3191243D01*
Y2889205D01*
X3242908D01*
Y2883464D01*
D02*
G37*
G36*
X2978842D02*
X2990323D01*
Y2877723D01*
X2996064D01*
Y2871983D01*
X3001804D01*
Y2866242D01*
X3007545D01*
Y2860502D01*
X3013285D01*
Y2849021D01*
X3019026D01*
Y2803096D01*
X3013285D01*
Y2791615D01*
X3007545D01*
Y2780134D01*
X3001804D01*
Y2774393D01*
X2990323D01*
Y2768653D01*
X2984583D01*
Y2762912D01*
X2967361D01*
Y2757172D01*
X2938658D01*
Y2762912D01*
X2921436D01*
Y2768653D01*
X2915696D01*
Y2774393D01*
X2909955D01*
Y2780134D01*
X2904215D01*
Y2785875D01*
X2898474D01*
Y2791615D01*
X2892734D01*
Y2808837D01*
X2886993D01*
Y2843280D01*
X2892734D01*
Y2854761D01*
X2898474D01*
Y2866242D01*
X2904215D01*
Y2871983D01*
X2909955D01*
Y2877723D01*
X2915696D01*
Y2883464D01*
X2927177D01*
Y2889205D01*
X2978842D01*
Y2883464D01*
D02*
G37*
G36*
X2714776D02*
X2726257D01*
Y2877723D01*
X2731998D01*
Y2871983D01*
X2737739D01*
Y2866242D01*
X2743479D01*
Y2860502D01*
X2749220D01*
Y2849021D01*
X2754960D01*
Y2797356D01*
X2749220D01*
Y2785875D01*
X2743479D01*
Y2780134D01*
X2737739D01*
Y2774393D01*
X2731998D01*
Y2768653D01*
X2720517D01*
Y2762912D01*
X2703295D01*
Y2757172D01*
X2674593D01*
Y2762912D01*
X2663112D01*
Y2768653D01*
X2651630D01*
Y2774393D01*
X2645890D01*
Y2780134D01*
X2640149D01*
Y2785875D01*
X2634408D01*
Y2797356D01*
X2628668D01*
Y2814578D01*
X2622927D01*
Y2837540D01*
X2628668D01*
Y2854761D01*
X2634408D01*
Y2866242D01*
X2640149D01*
Y2871983D01*
X2645890D01*
Y2877723D01*
X2657371D01*
Y2883464D01*
X2663112D01*
Y2889205D01*
X2714776D01*
Y2883464D01*
D02*
G37*
G36*
X2496635Y2762912D02*
X2490895D01*
Y2757172D01*
X2106277D01*
Y2762912D01*
X2100537D01*
Y2889205D01*
X2106277D01*
Y2894945D01*
X2496635D01*
Y2762912D01*
D02*
G37*
G36*
X1968504Y2889205D02*
X1974244D01*
Y2762912D01*
X1968504D01*
Y2757172D01*
X1578146D01*
Y2894945D01*
X1968504D01*
Y2889205D01*
D02*
G37*
G36*
X3443827Y2676804D02*
X3449568D01*
Y2671063D01*
X3455308D01*
Y2659582D01*
X3461049D01*
Y2653842D01*
X3466789D01*
Y2642361D01*
X3472530D01*
Y2636620D01*
X3478270D01*
Y2625139D01*
X3484011D01*
Y2619399D01*
X3489752D01*
Y2607917D01*
X3495492D01*
Y2602177D01*
X3501233D01*
Y2590696D01*
X3506973D01*
Y2584955D01*
X3512714D01*
Y2573474D01*
X3518454D01*
Y2544771D01*
X3432346D01*
Y2498847D01*
X3409384D01*
Y2544771D01*
X3380681D01*
Y2561993D01*
X3409384D01*
Y2625139D01*
Y2630880D01*
Y2688285D01*
X3443827D01*
Y2676804D01*
D02*
G37*
G36*
X3225686Y2625139D02*
X3242908D01*
Y2619399D01*
X3254389D01*
Y2613658D01*
X3260129D01*
Y2607917D01*
X3265870D01*
Y2602177D01*
X3271610D01*
Y2590696D01*
X3277351D01*
Y2567733D01*
X3283091D01*
Y2561993D01*
X3277351D01*
Y2539031D01*
X3271610D01*
Y2527550D01*
X3265870D01*
Y2521809D01*
X3260129D01*
Y2516069D01*
X3254389D01*
Y2510328D01*
X3248648D01*
Y2504587D01*
X3237167D01*
Y2498847D01*
X3196983D01*
Y2504587D01*
X3179761D01*
Y2510328D01*
X3174021D01*
Y2516069D01*
X3168280D01*
Y2521809D01*
X3162540D01*
Y2527550D01*
X3156799D01*
Y2539031D01*
X3151059D01*
Y2584955D01*
X3156799D01*
Y2596436D01*
X3162540D01*
Y2607917D01*
X3168280D01*
Y2613658D01*
X3179761D01*
Y2619399D01*
X3185502D01*
Y2625139D01*
X3202724D01*
Y2630880D01*
X3225686D01*
Y2625139D01*
D02*
G37*
G36*
X2961620D02*
X2984583D01*
Y2619399D01*
X2990323D01*
Y2613658D01*
X2996064D01*
Y2607917D01*
X3001804D01*
Y2602177D01*
X3007545D01*
Y2596436D01*
X3013285D01*
Y2584955D01*
X3019026D01*
Y2544771D01*
X3013285D01*
Y2533290D01*
X3007545D01*
Y2521809D01*
X3001804D01*
Y2516069D01*
X2996064D01*
Y2510328D01*
X2984583D01*
Y2504587D01*
X2973101D01*
Y2498847D01*
X2932918D01*
Y2504587D01*
X2921436D01*
Y2510328D01*
X2909955D01*
Y2516069D01*
X2904215D01*
Y2527550D01*
X2898474D01*
Y2533290D01*
X2892734D01*
Y2550512D01*
X2886993D01*
Y2579215D01*
X2892734D01*
Y2584955D01*
Y2590696D01*
X2898474D01*
Y2602177D01*
X2904215D01*
Y2607917D01*
X2909955D01*
Y2613658D01*
X2915696D01*
Y2619399D01*
X2927177D01*
Y2625139D01*
X2944399D01*
Y2630880D01*
X2961620D01*
Y2625139D01*
D02*
G37*
G36*
X2703295D02*
X2720517D01*
Y2619399D01*
X2731998D01*
Y2613658D01*
X2737739D01*
Y2607917D01*
X2743479D01*
Y2596436D01*
X2749220D01*
Y2584955D01*
X2754960D01*
Y2539031D01*
X2749220D01*
Y2527550D01*
X2743479D01*
Y2521809D01*
X2737739D01*
Y2516069D01*
X2731998D01*
Y2510328D01*
X2726257D01*
Y2504587D01*
X2709036D01*
Y2498847D01*
X2668852D01*
Y2504587D01*
X2657371D01*
Y2510328D01*
X2651630D01*
Y2516069D01*
X2645890D01*
Y2521809D01*
X2640149D01*
Y2527550D01*
X2634408D01*
Y2539031D01*
X2628668D01*
Y2590696D01*
X2634408D01*
Y2602177D01*
X2640149D01*
Y2607917D01*
X2645890D01*
Y2613658D01*
X2651630D01*
Y2619399D01*
X2663112D01*
Y2625139D01*
X2680333D01*
Y2630880D01*
X2703295D01*
Y2625139D01*
D02*
G37*
G36*
X2439230D02*
X2456451D01*
Y2619399D01*
X2467933D01*
Y2613658D01*
X2473673D01*
Y2607917D01*
X2479414D01*
Y2602177D01*
X2485154D01*
Y2590696D01*
X2490895D01*
Y2584955D01*
Y2579215D01*
X2496635D01*
Y2550512D01*
X2490895D01*
Y2533290D01*
X2485154D01*
Y2527550D01*
X2479414D01*
Y2516069D01*
X2473673D01*
Y2510328D01*
X2462192D01*
Y2504587D01*
X2450711D01*
Y2498847D01*
X2410527D01*
Y2504587D01*
X2399046D01*
Y2510328D01*
X2387565D01*
Y2516069D01*
X2381824D01*
Y2521809D01*
X2376084D01*
Y2533290D01*
X2370343D01*
Y2544771D01*
X2364602D01*
Y2584955D01*
X2370343D01*
Y2596436D01*
X2376084D01*
Y2602177D01*
X2381824D01*
Y2607917D01*
X2387565D01*
Y2613658D01*
X2393305D01*
Y2619399D01*
X2399046D01*
Y2625139D01*
X2422008D01*
Y2630880D01*
X2439230D01*
Y2625139D01*
D02*
G37*
G36*
X2232570Y2498847D02*
X1842212D01*
Y2630880D01*
X2232570D01*
Y2498847D01*
D02*
G37*
G36*
X3512714Y2332371D02*
X3506973D01*
Y2338111D01*
X3489752D01*
Y2343852D01*
X3449568D01*
Y2338111D01*
X3438087D01*
Y2332371D01*
X3432346D01*
Y2326630D01*
X3426606D01*
Y2315149D01*
X3420865D01*
Y2280706D01*
X3426606D01*
Y2269225D01*
X3432346D01*
Y2263484D01*
X3438087D01*
Y2257744D01*
X3449568D01*
Y2252003D01*
X3495492D01*
Y2257744D01*
X3512714D01*
Y2263484D01*
X3518454D01*
Y2240522D01*
X3501233D01*
Y2234781D01*
X3443827D01*
Y2240522D01*
X3426606D01*
Y2246262D01*
X3420865D01*
Y2252003D01*
X3415124D01*
Y2257744D01*
X3409384D01*
Y2263484D01*
X3403643D01*
Y2274965D01*
X3397903D01*
Y2297927D01*
Y2303668D01*
Y2315149D01*
X3403643D01*
Y2332371D01*
X3409384D01*
Y2338111D01*
X3415124D01*
Y2343852D01*
X3420865D01*
Y2349592D01*
X3426606D01*
Y2355333D01*
X3443827D01*
Y2361074D01*
X3489752D01*
Y2406998D01*
X3409384D01*
Y2424220D01*
X3512714D01*
Y2332371D01*
D02*
G37*
G36*
X3237167Y2361074D02*
X3248648D01*
Y2355333D01*
X3254389D01*
Y2349592D01*
X3260129D01*
Y2343852D01*
X3265870D01*
Y2338111D01*
X3271610D01*
Y2326630D01*
X3277351D01*
Y2303668D01*
X3283091D01*
Y2297927D01*
X3277351D01*
Y2286446D01*
Y2280706D01*
Y2274965D01*
X3271610D01*
Y2263484D01*
X3265870D01*
Y2257744D01*
X3260129D01*
Y2252003D01*
X3254389D01*
Y2246262D01*
X3242908D01*
Y2240522D01*
X3225686D01*
Y2234781D01*
X3208464D01*
Y2240522D01*
X3185502D01*
Y2246262D01*
X3179761D01*
Y2252003D01*
X3168280D01*
Y2257744D01*
X3162540D01*
Y2269225D01*
X3156799D01*
Y2280706D01*
X3151059D01*
Y2326630D01*
X3156799D01*
Y2338111D01*
X3162540D01*
Y2343852D01*
X3168280D01*
Y2349592D01*
X3174021D01*
Y2355333D01*
X3179761D01*
Y2361074D01*
X3191243D01*
Y2366814D01*
X3237167D01*
Y2361074D01*
D02*
G37*
G36*
X2973101D02*
X2984583D01*
Y2355333D01*
X2996064D01*
Y2349592D01*
X3001804D01*
Y2343852D01*
X3007545D01*
Y2332371D01*
X3013285D01*
Y2320890D01*
X3019026D01*
Y2280706D01*
X3013285D01*
Y2269225D01*
X3007545D01*
Y2263484D01*
X3001804D01*
Y2257744D01*
X2996064D01*
Y2252003D01*
X2990323D01*
Y2246262D01*
X2984583D01*
Y2240522D01*
X2961620D01*
Y2234781D01*
X2944399D01*
Y2240522D01*
X2927177D01*
Y2246262D01*
X2915696D01*
Y2252003D01*
X2909955D01*
Y2257744D01*
X2904215D01*
Y2263484D01*
X2898474D01*
Y2274965D01*
X2892734D01*
Y2286446D01*
X2886993D01*
Y2315149D01*
X2892734D01*
Y2332371D01*
X2898474D01*
Y2343852D01*
X2904215D01*
Y2349592D01*
X2909955D01*
Y2355333D01*
X2921436D01*
Y2361074D01*
X2932918D01*
Y2366814D01*
X2973101D01*
Y2361074D01*
D02*
G37*
G36*
X2714776D02*
X2726257D01*
Y2355333D01*
X2731998D01*
Y2349592D01*
X2737739D01*
Y2343852D01*
X2743479D01*
Y2338111D01*
X2749220D01*
Y2326630D01*
X2754960D01*
Y2280706D01*
X2749220D01*
Y2269225D01*
X2743479D01*
Y2257744D01*
X2737739D01*
Y2252003D01*
X2726257D01*
Y2246262D01*
X2720517D01*
Y2240522D01*
X2697555D01*
Y2234781D01*
X2680333D01*
Y2240522D01*
X2663112D01*
Y2246262D01*
X2651630D01*
Y2252003D01*
X2645890D01*
Y2257744D01*
X2640149D01*
Y2263484D01*
X2634408D01*
Y2274965D01*
X2628668D01*
Y2326630D01*
X2634408D01*
Y2338111D01*
X2640149D01*
Y2343852D01*
X2645890D01*
Y2349592D01*
X2651630D01*
Y2355333D01*
X2657371D01*
Y2361074D01*
X2668852D01*
Y2366814D01*
X2714776D01*
Y2361074D01*
D02*
G37*
G36*
X2450711D02*
X2462192D01*
Y2355333D01*
X2473673D01*
Y2349592D01*
X2479414D01*
Y2343852D01*
X2485154D01*
Y2332371D01*
X2490895D01*
Y2315149D01*
X2496635D01*
Y2286446D01*
X2490895D01*
Y2274965D01*
X2485154D01*
Y2263484D01*
X2479414D01*
Y2257744D01*
X2473673D01*
Y2252003D01*
X2467933D01*
Y2246262D01*
X2456451D01*
Y2240522D01*
X2439230D01*
Y2234781D01*
X2422008D01*
Y2240522D01*
X2399046D01*
Y2246262D01*
X2393305D01*
Y2252003D01*
X2387565D01*
Y2257744D01*
X2381824D01*
Y2263484D01*
X2376084D01*
Y2269225D01*
X2370343D01*
Y2280706D01*
X2364602D01*
Y2292187D01*
Y2297927D01*
Y2320890D01*
X2370343D01*
Y2332371D01*
X2376084D01*
Y2343852D01*
X2381824D01*
Y2349592D01*
X2387565D01*
Y2355333D01*
X2399046D01*
Y2361074D01*
X2410527D01*
Y2366814D01*
X2450711D01*
Y2361074D01*
D02*
G37*
G36*
X2192386D02*
X2203867D01*
Y2355333D01*
X2209607D01*
Y2349592D01*
X2215348D01*
Y2343852D01*
X2221089D01*
Y2338111D01*
X2226829D01*
Y2326630D01*
X2232570D01*
Y2280706D01*
X2226829D01*
Y2269225D01*
X2221089D01*
Y2257744D01*
X2215348D01*
Y2252003D01*
X2203867D01*
Y2246262D01*
X2198126D01*
Y2240522D01*
X2175164D01*
Y2234781D01*
X2157942D01*
Y2240522D01*
X2140721D01*
Y2246262D01*
X2129240D01*
Y2252003D01*
X2123499D01*
Y2257744D01*
X2117759D01*
Y2263484D01*
X2112018D01*
Y2274965D01*
X2106277D01*
Y2297927D01*
X2100537D01*
Y2303668D01*
X2106277D01*
Y2315149D01*
Y2320890D01*
Y2326630D01*
X2112018D01*
Y2338111D01*
X2117759D01*
Y2343852D01*
X2123499D01*
Y2349592D01*
X2129240D01*
Y2355333D01*
X2134980D01*
Y2361074D01*
X2146461D01*
Y2366814D01*
X2192386D01*
Y2361074D01*
D02*
G37*
%LPC*%
G36*
X3461049Y2091267D02*
X3426606D01*
Y2085527D01*
X3420865D01*
Y2079786D01*
X3415124D01*
Y2074046D01*
X3409384D01*
Y2062565D01*
X3403643D01*
Y2022381D01*
X3409384D01*
Y2010899D01*
X3415124D01*
Y2005159D01*
X3420865D01*
Y1999418D01*
X3426606D01*
Y1993678D01*
X3461049D01*
Y1999418D01*
X3466789D01*
Y2005159D01*
X3472530D01*
Y2010899D01*
X3478270D01*
Y2022381D01*
X3484011D01*
Y2062565D01*
X3478270D01*
Y2074046D01*
X3472530D01*
Y2079786D01*
X3466789D01*
Y2085527D01*
X3461049D01*
Y2091267D01*
D02*
G37*
G36*
Y1632023D02*
X3432346D01*
Y1626282D01*
X3420865D01*
Y1620542D01*
X3415124D01*
Y1614801D01*
X3409384D01*
Y1580358D01*
X3415124D01*
Y1574617D01*
X3420865D01*
Y1568877D01*
X3432346D01*
Y1563136D01*
X3461049D01*
Y1568877D01*
X3472530D01*
Y1574617D01*
X3478270D01*
Y1580358D01*
X3484011D01*
Y1614801D01*
X3478270D01*
Y1620542D01*
X3472530D01*
Y1626282D01*
X3461049D01*
Y1632023D01*
D02*
G37*
G36*
X3466789Y1545914D02*
X3426606D01*
Y1540174D01*
X3415124D01*
Y1534433D01*
X3409384D01*
Y1522952D01*
X3403643D01*
Y1494249D01*
X3409384D01*
Y1482768D01*
X3415124D01*
Y1477028D01*
X3426606D01*
Y1471287D01*
X3466789D01*
Y1477028D01*
X3478270D01*
Y1482768D01*
X3484011D01*
Y1494249D01*
X3489752D01*
Y1522952D01*
X3484011D01*
Y1534433D01*
X3478270D01*
Y1540174D01*
X3466789D01*
Y1545914D01*
D02*
G37*
G36*
Y1367957D02*
X3432346D01*
Y1362216D01*
X3426606D01*
Y1356476D01*
X3420865D01*
Y1350735D01*
X3415124D01*
Y1339254D01*
X3409384D01*
Y1299070D01*
X3415124D01*
Y1287589D01*
X3420865D01*
Y1281849D01*
X3426606D01*
Y1276108D01*
X3432346D01*
Y1270368D01*
X3466789D01*
Y1276108D01*
X3472530D01*
Y1281849D01*
X3478270D01*
Y1287589D01*
X3484011D01*
Y1299070D01*
X3489752D01*
Y1322033D01*
Y1327773D01*
Y1339254D01*
X3484011D01*
Y1350735D01*
X3478270D01*
Y1356476D01*
X3472530D01*
Y1362216D01*
X3466789D01*
Y1367957D01*
D02*
G37*
G36*
X3461049Y1103891D02*
X3432346D01*
Y1098151D01*
X3420865D01*
Y1086670D01*
X3415124D01*
Y1080929D01*
X3409384D01*
Y1057967D01*
X3403643D01*
Y989080D01*
X3409384D01*
Y966118D01*
X3415124D01*
Y960378D01*
X3420865D01*
Y948897D01*
X3432346D01*
Y943156D01*
X3461049D01*
Y948897D01*
X3472530D01*
Y960378D01*
X3478270D01*
Y966118D01*
X3484011D01*
Y989080D01*
X3489752D01*
Y1057967D01*
X3484011D01*
Y1080929D01*
X3478270D01*
Y1086670D01*
X3472530D01*
Y1098151D01*
X3461049D01*
Y1103891D01*
D02*
G37*
G36*
X3438087Y2665323D02*
X3432346D01*
Y2561993D01*
X3501233D01*
Y2567733D01*
X3495492D01*
Y2573474D01*
X3489752D01*
Y2584955D01*
X3484011D01*
Y2590696D01*
X3478270D01*
Y2602177D01*
X3472530D01*
Y2607917D01*
X3466789D01*
Y2619399D01*
X3461049D01*
Y2630880D01*
X3455308D01*
Y2636620D01*
X3449568D01*
Y2648101D01*
X3443827D01*
Y2653842D01*
X3438087D01*
Y2665323D01*
D02*
G37*
%LPD*%
M02*
