G04*
G04 #@! TF.GenerationSoftware,Altium Limited,Altium Designer,22.4.2 (48)*
G04*
G04 Layer_Physical_Order=2*
G04 Layer_Color=16711680*
%FSLAX45Y45*%
%MOMM*%
G71*
G04*
G04 #@! TF.SameCoordinates,A1ACB9CE-F43E-4389-816B-9D06E944576F*
G04*
G04*
G04 #@! TF.FilePolarity,Positive*
G04*
G01*
G75*
%ADD11C,0.25400*%
%ADD43C,2.40000*%
%ADD44C,0.60000*%
G36*
X2334093Y4039811D02*
X2464816Y4025756D01*
X2594203Y4002412D01*
X2721596Y3969898D01*
X2846344Y3928377D01*
X2967813Y3878063D01*
X3085382Y3819212D01*
X3198454Y3752124D01*
X3306452Y3677140D01*
X3408825Y3594642D01*
X3505052Y3505052D01*
X3594642Y3408825D01*
X3677140Y3306452D01*
X3752124Y3198454D01*
X3819212Y3085382D01*
X3878063Y2967813D01*
X3928377Y2846344D01*
X3969898Y2721596D01*
X4002412Y2594203D01*
X4025756Y2464816D01*
X4039811Y2334093D01*
X4044503Y2202700D01*
X4039811Y2071307D01*
X4025756Y1940584D01*
X4002412Y1811197D01*
X3969898Y1683804D01*
X3928377Y1559056D01*
X3878063Y1437587D01*
X3819212Y1320017D01*
X3752124Y1206946D01*
X3677140Y1098948D01*
X3594642Y996575D01*
X3505052Y900348D01*
X3408825Y810758D01*
X3306452Y728260D01*
X3198454Y653276D01*
X3085382Y586188D01*
X2967813Y527337D01*
X2846344Y477023D01*
X2721596Y435502D01*
X2594203Y402988D01*
X2464816Y379643D01*
X2334093Y365589D01*
X2202700Y360896D01*
X2071307Y365589D01*
X1940584Y379643D01*
X1811197Y402988D01*
X1683804Y435502D01*
X1559056Y477023D01*
X1437587Y527337D01*
X1320017Y586188D01*
X1206946Y653276D01*
X1098948Y728260D01*
X996575Y810758D01*
X900348Y900348D01*
X810758Y996575D01*
X728260Y1098948D01*
X653276Y1206946D01*
X586188Y1320017D01*
X527337Y1437587D01*
X477023Y1559056D01*
X435502Y1683804D01*
X402988Y1811197D01*
X379643Y1940584D01*
X365589Y2071307D01*
X360896Y2202700D01*
X365589Y2334093D01*
X379643Y2464816D01*
X402988Y2594203D01*
X435502Y2721596D01*
X477023Y2846344D01*
X527337Y2967813D01*
X586188Y3085382D01*
X653276Y3198454D01*
X728260Y3306452D01*
X810758Y3408825D01*
X900348Y3505052D01*
X996575Y3594642D01*
X1098948Y3677140D01*
X1206946Y3752124D01*
X1320017Y3819212D01*
X1437587Y3878063D01*
X1559056Y3928377D01*
X1683804Y3969898D01*
X1811197Y4002412D01*
X1940584Y4025756D01*
X2071307Y4039811D01*
X2202700Y4044503D01*
X2334093Y4039811D01*
D02*
G37*
%LPC*%
G36*
X2398620Y3128800D02*
X2376580D01*
X2356219Y3120366D01*
X2348099Y3112247D01*
X1333500D01*
X1318634Y3109289D01*
X1306031Y3100869D01*
X1105363Y2900200D01*
X1093880D01*
X1073519Y2891766D01*
X1057934Y2876181D01*
X1049500Y2855820D01*
Y2833780D01*
X1057934Y2813419D01*
X1073519Y2797834D01*
X1093880Y2789400D01*
X1115920D01*
X1136281Y2797834D01*
X1151866Y2813419D01*
X1160300Y2833780D01*
Y2845263D01*
X1349591Y3034553D01*
X2348099D01*
X2356219Y3026434D01*
X2376580Y3018000D01*
X2398620D01*
X2418981Y3026434D01*
X2434566Y3042019D01*
X2443000Y3062380D01*
Y3084420D01*
X2434566Y3104781D01*
X2418981Y3120366D01*
X2398620Y3128800D01*
D02*
G37*
G36*
X457200Y2175604D02*
Y2133600D01*
X499204D01*
X491466Y2152281D01*
X475881Y2167866D01*
X457200Y2175604D01*
D02*
G37*
G36*
X431800D02*
X413119Y2167866D01*
X397534Y2152281D01*
X389796Y2133600D01*
X431800D01*
Y2175604D01*
D02*
G37*
G36*
X499204Y2108200D02*
X457200D01*
Y2066196D01*
X475881Y2073934D01*
X491466Y2089519D01*
X499204Y2108200D01*
D02*
G37*
G36*
X431800D02*
X389796D01*
X397534Y2089519D01*
X413119Y2073934D01*
X431800Y2066196D01*
Y2108200D01*
D02*
G37*
%LPD*%
D11*
X1333500Y3073400D02*
X2387600D01*
X1104900Y2844800D02*
X1333500Y3073400D01*
D43*
X770000Y3640800D02*
D03*
X3640800D02*
D03*
Y770000D02*
D03*
X770000D02*
D03*
D44*
X444500Y2120900D02*
D03*
X2387600Y3073400D02*
D03*
X1104900Y2844800D02*
D03*
M02*
